<svg width="65" height="64" viewBox="0 0 65 64" fill="none" xmlns="http://www.w3.org/2000/svg">
<path d="M53.8334 48.0006C53.8334 53.8916 44.2822 58.6673 32.5001 58.6673C20.718 58.6673 11.1667 53.8916 11.1667 48.0006V37.2646C12.5059 38.9089 14.4066 40.275 16.5207 41.3318C20.7135 43.4284 26.3658 44.6673 32.5001 44.6673C38.6342 44.6673 44.2867 43.4284 48.4795 41.3318C50.5937 40.275 52.4942 38.9089 53.8334 37.2646V48.0006Z" fill="#1C274C"/>
<path d="M32.5001 28.6674C38.6342 28.6674 44.2867 27.4285 48.4795 25.3321C50.5937 24.275 52.4942 22.909 53.8334 21.2646V32.0007C53.8334 33.3341 49.0715 36.2437 46.6905 37.7543C43.1622 39.5186 38.1481 40.6674 32.5001 40.6674C26.8522 40.6674 21.8379 39.5186 18.3095 37.7543C15.1667 36.1829 11.1667 33.3341 11.1667 32.0007V21.2646C12.5059 22.909 14.4066 24.275 16.5207 25.3321C20.7135 27.4285 26.3658 28.6674 32.5001 28.6674Z" fill="#1C274C"/>
<path d="M46.6904 21.7538C43.1622 23.518 38.148 24.6668 32.5 24.6668C26.8522 24.6668 21.8379 23.518 18.3095 21.7538C16.9369 21.2161 13.8504 19.5066 11.704 16.7451C11.3388 16.2752 11.1821 15.6762 11.2731 15.0881C11.3343 14.6927 11.4195 14.2854 11.5288 14.0329C13.3751 9.0816 22.0622 5.3335 32.5 5.3335C42.9379 5.3335 51.6248 9.0816 53.4712 14.0329C53.5806 14.2854 53.6659 14.6927 53.727 15.0881C53.8179 15.6762 53.6614 16.2752 53.296 16.7451C51.1496 19.5066 48.0632 21.2161 46.6904 21.7538Z" fill="#1C274C"/>
</svg>
