<svg width="200" height="200" viewBox="0 0 200 200" fill="none" xmlns="http://www.w3.org/2000/svg">
<path d="M90.6 66.8003C83.2 66.8003 77 72.8003 77 80.4003C77 88.0003 83 94.0003 90.6 94.0003C98.2 94.0003 104.2 88.0003 104.2 80.4003C104.2 72.8003 98 66.8003 90.6 66.8003ZM90.6 85.8003C87.6 85.8003 85 83.4003 85 80.2003C85 77.0003 87.4 74.6003 90.6 74.6003C93.8 74.6003 96.2 77.0003 96.2 80.2003C96.2 83.4003 93.6 85.8003 90.6 85.8003Z" fill="#0BEBAF"/>
<path d="M108.8 100C108.8 107.4 114.8 113.6 122.4 113.6C130 113.6 136 107.6 136 100C136 92.4004 130 86.4004 122.4 86.4004C114.8 86.4004 108.8 92.6004 108.8 100ZM127.8 100C127.8 103 125.4 105.6 122.2 105.6C119 105.6 116.6 103.2 116.6 100C116.6 96.8004 119 94.4004 122.2 94.4004C125.4 94.4004 127.8 97.0004 127.8 100Z" fill="#0BEBAF"/>
<path d="M84.8001 101.8C77.4001 101.8 71.2001 107.8 71.2001 115.4C71.2001 123 77.2001 129 84.8001 129C92.4001 129 98.4001 123 98.4001 115.4C98.4001 107.8 92.2001 101.8 84.8001 101.8ZM84.8001 120.8C81.8001 120.8 79.2001 118.4 79.2001 115.2C79.2001 112 81.6001 109.6 84.8001 109.6C88.0001 109.6 90.4001 112 90.4001 115.2C90.4001 118.4 87.8001 120.8 84.8001 120.8Z" fill="#0BEBAF"/>
<path d="M167.6 86.6002C161.6 86.6002 156.4 90.6002 154.8 96.2002H148C147.2 86.0002 143 76.6002 136.8 69.2002L141.6 64.4002C143.6 65.4002 145.6 66.0002 147.8 66.0002C151.4 66.0002 154.8 64.6002 157.4 62.0002C162.6 56.8002 162.6 48.2002 157.4 43.0002C154.8 40.4002 151.4 39.0002 147.8 39.0002C144.2 39.0002 140.8 40.4002 138.2 43.0002C134 47.2002 133.2 53.8002 135.8 58.8002L131 63.6002C123.6 57.4002 114.2 53.2002 104 52.4002V45.6002C109.4 43.8002 113.6 38.8002 113.6 32.8002C113.6 25.4002 107.6 19.2002 100 19.2002C92.4 19.2002 86.4001 25.2002 86.4001 32.8002C86.4001 38.8002 90.4 44.0002 96 45.6002V52.4002C85.8 53.2002 76.4 57.4002 69 63.6002L64.2 58.8002C66.8 53.8002 66 47.2002 61.8 43.0002C59.2 40.4002 55.8001 39.0002 52.2001 39.0002C48.6001 39.0002 45.2 40.4002 42.6 43.0002C37.4 48.2002 37.4 56.8002 42.6 62.0002C45.2 64.6002 48.6001 66.0002 52.2001 66.0002C54.4001 66.0002 56.6001 65.4002 58.4001 64.4002L63.2001 69.2002C57.0001 76.6002 52.8 86.0002 52 96.2002H45.2001C43.4001 90.8002 38.4001 86.6002 32.4001 86.6002C25.0001 86.6002 18.8 92.6002 18.8 100.2C18.8 107.8 24.8001 113.8 32.4001 113.8C38.4001 113.8 43.6001 109.8 45.2001 104.2H52C52.8 114.4 57.0001 123.8 63.2001 131.2L58.4001 136C56.4001 135 54.4001 134.4 52.2001 134.4C48.6001 134.4 45.2 135.8 42.6 138.4C37.4 143.6 37.4 152.2 42.6 157.4C45.2 160 48.6001 161.4 52.2001 161.4C55.8001 161.4 59.2 160 61.8 157.4C66 153.2 66.8 146.6 64.2 141.6L69 136.8C76.4 143 85.8 147.2 96 148V154.8C90.6 156.6 86.4001 161.6 86.4001 167.6C86.4001 175 92.4 181.2 100 181.2C107.6 181.2 113.6 175.2 113.6 167.6C113.6 161.6 109.6 156.4 104 154.8V148C114.2 147.2 123.6 143 131 136.8L135.8 141.6C133.2 146.6 134 153.2 138.2 157.4C140.8 160 144.2 161.4 147.8 161.4C151.4 161.4 154.8 160 157.4 157.4C162.6 152.2 162.6 143.6 157.4 138.4C154.8 135.8 151.4 134.4 147.8 134.4C145.6 134.4 143.4 135 141.6 136L136.8 131.2C143 123.8 147.2 114.4 148 104.2H154.8C156.6 109.6 161.6 113.8 167.6 113.8C175 113.8 181.2 107.8 181.2 100.2C181.2 92.6002 175 86.6002 167.6 86.6002ZM143.8 48.4002C144.8 47.4002 146.2 46.8002 147.6 46.8002C149 46.8002 150.4 47.4002 151.4 48.4002C153.6 50.6002 153.6 54.0002 151.4 56.2002C149.4 58.2002 145.6 58.2002 143.6 56.2002C141.6 54.0002 141.6 50.6002 143.8 48.4002ZM100 27.0002C103 27.0002 105.6 29.4002 105.6 32.6002C105.6 35.8002 103 38.0002 100 38.0002C97 38.0002 94.4001 35.6002 94.4001 32.4002C94.4001 29.2002 97 27.0002 100 27.0002ZM48.4001 56.2002C46.2001 54.0002 46.2001 50.6002 48.4001 48.4002C49.4001 47.4002 50.8001 46.8002 52.2001 46.8002C53.6001 46.8002 55 47.4002 56 48.4002C58.2 50.6002 58.2 54.0002 56 56.2002C54 58.2002 50.4001 58.2002 48.4001 56.2002ZM32.6 105.6C29.6 105.6 27 103.2 27 100C27 96.8002 29.4 94.4002 32.6 94.4002C35.8 94.4002 38 97.0002 38 100C38 103 35.6 105.6 32.6 105.6ZM56.2001 151.6C54.2001 153.6 50.4001 153.6 48.4001 151.6C46.2001 149.4 46.2001 146 48.4001 143.8C49.4001 142.8 50.8001 142.2 52.2001 142.2C53.6001 142.2 55 142.8 56 143.8C58.4 146 58.4001 149.4 56.2001 151.6ZM100 173C97 173 94.4001 170.6 94.4001 167.4C94.4001 164.2 97 162 100 162C103 162 105.6 164.4 105.6 167.6C105.6 170.8 103 173 100 173ZM151.6 143.8C153.8 146 153.8 149.4 151.6 151.6C149.6 153.6 145.8 153.6 143.8 151.6C141.6 149.4 141.6 146 143.8 143.8C144.8 142.8 146.2 142.2 147.6 142.2C149.2 142.2 150.6 142.8 151.6 143.8ZM100 140C78 140 60 122 60 100C60 78.0002 78 60.0002 100 60.0002C122 60.0002 140 78.0002 140 100C140 122 122 140 100 140ZM167.6 105.6C164.6 105.6 162 103.2 162 100C162 96.8002 164.4 94.4002 167.6 94.4002C170.8 94.4002 173.2 96.8002 173.2 100C173.2 103.2 170.6 105.6 167.6 105.6Z" fill="#0BEBAF"/>
</svg>
