<svg width="240" height="240" viewBox="0 0 240 240" fill="none" xmlns="http://www.w3.org/2000/svg">
<path fill-rule="evenodd" clip-rule="evenodd" d="M89.6173 184.687C60.1943 162.137 20 124.886 20 89.6653C20 30.8262 75.0016 8.8586 120 54.3111C164.998 8.8586 220 30.8262 220 89.665C220 124.887 179.806 162.137 150.383 184.687C137.063 194.896 130.403 200 120 200C109.597 200 102.937 194.896 89.6173 184.687ZM165 62.5C169.142 62.5 172.5 65.8579 172.5 70V82.5002H185C189.142 82.5002 192.5 85.858 192.5 90.0002C192.5 94.1423 189.142 97.5002 185 97.5002H172.5V110C172.5 114.142 169.142 117.5 165 117.5C160.858 117.5 157.5 114.142 157.5 110V97.5002H145C140.858 97.5002 137.5 94.1423 137.5 90.0002C137.5 85.858 140.858 82.5002 145 82.5002H157.5V70C157.5 65.8579 160.858 62.5 165 62.5Z" fill="#0BEBAF"/>
</svg>
