<svg width="200" height="200" viewBox="0 0 200 200" fill="none" xmlns="http://www.w3.org/2000/svg">
<g clip-path="url(#clip0_35_37)">
<path d="M197.559 185.768L162.084 150.293C175.344 134.391 183.333 113.949 183.333 91.6745C183.333 41.1295 142.212 0.0078125 91.6667 0.0078125C41.1217 0.0078125 0 41.1289 0 91.6745C0 142.22 41.1217 183.341 91.6667 183.341C113.948 183.341 134.397 175.346 150.301 162.079L185.774 197.553C187.402 199.181 189.534 199.994 191.667 199.994C193.799 199.994 195.932 199.181 197.559 197.553C200.814 194.298 200.814 189.022 197.559 185.768ZM52.7778 130.563C52.7778 109.084 70.1894 91.6745 91.6667 91.6745C77.86 91.6745 66.6661 80.4817 66.6661 66.6739C66.6661 52.8661 77.86 41.6745 91.6667 41.6745C105.473 41.6745 116.667 52.8667 116.667 66.6739C116.667 80.4812 105.473 91.6745 91.6667 91.6745C113.143 91.6745 130.555 109.084 130.555 130.563H52.7778Z" fill="#0BEBAF"/>
</g>
<defs>
<clipPath id="clip0_35_37">
<rect width="200" height="200" fill="white"/>
</clipPath>
</defs>
</svg>
