<svg width="200" height="200" viewBox="0 0 200 200" fill="none" xmlns="http://www.w3.org/2000/svg">
<path fill-rule="evenodd" clip-rule="evenodd" d="M77.0833 33.3327C77.0833 20.6762 87.3433 10.416 99.9999 10.416C112.657 10.416 122.917 20.6762 122.917 33.3327C122.917 45.9892 112.657 56.2493 99.9999 56.2493C87.3433 56.2493 77.0833 45.9892 77.0833 33.3327Z" fill="#0BEBAF"/>
<path d="M68.5256 96.4502L50.3981 90.4077C45.1837 88.6694 41.6665 83.7894 41.6665 78.2932C41.6665 70.1635 49.1626 64.1035 57.1119 65.807L72.925 69.1955C73.8043 69.3839 74.244 69.478 74.6799 69.5682C91.3832 73.0232 108.616 73.0232 125.32 69.5682C125.756 69.478 126.196 69.3839 127.075 69.1955L142.887 65.8069C150.837 64.1035 158.333 70.1635 158.333 78.2932C158.333 83.7894 154.816 88.6694 149.601 90.4077L131.474 96.4502C129.283 97.1802 128.188 97.5452 127.364 98.0544C124.559 99.7852 123.038 103.008 123.485 106.274C123.617 107.234 124.031 108.311 124.86 110.466L135.25 137.48C138.342 145.521 132.407 154.164 123.791 154.164C119.386 154.164 115.317 151.804 113.132 147.978L99.9998 124.997L86.8682 147.978C84.6823 151.804 80.6142 154.164 76.2087 154.164C67.593 154.164 61.6573 145.521 64.7501 137.48L75.14 110.466C75.9689 108.311 76.3834 107.234 76.5146 106.274C76.9612 103.008 75.4404 99.7852 72.6353 98.0544C71.8116 97.5452 70.7163 97.1802 68.5256 96.4502Z" fill="#0BEBAF"/>
<path d="M99.9998 183.331C146.023 183.331 183.333 166.542 183.333 145.831C183.333 131.483 165.424 119.016 139.117 112.711L146.917 132.991C153.158 149.22 141.179 166.663 123.791 166.663C114.9 166.663 106.69 161.898 102.279 154.178L99.9998 150.19L97.7207 154.178C93.3098 161.898 85.0998 166.663 76.2087 166.663C58.8208 166.663 46.8414 149.22 53.0833 132.991L60.8834 112.711C34.5754 119.016 16.6665 131.483 16.6665 145.831C16.6665 166.542 53.9761 183.331 99.9998 183.331Z" fill="#0BEBAF"/>
</svg>
