<svg width="200" height="200" viewBox="0 0 200 200" fill="none" xmlns="http://www.w3.org/2000/svg">
<path d="M25 87.5H12.5C8.75 87.5 6.25 85 6.25 81.25C6.25 77.5 8.75 75 12.5 75H25C28.75 75 31.25 77.5 31.25 81.25C31.25 85 28.75 87.5 25 87.5Z" fill="#0BEBAF"/>
<path d="M121.25 47.5C119.375 47.5 118.125 46.875 116.875 45.625C114.375 43.125 114.375 39.375 116.875 36.875L125.625 28.125C128.125 25.625 131.875 25.625 134.375 28.125C136.875 30.625 136.875 34.375 134.375 36.875L125.625 45.625C124.375 46.875 122.5 47.5 121.25 47.5Z" fill="#0BEBAF"/>
<path d="M81.25 31.25C77.5 31.25 75 28.75 75 25V12.5C75 8.75 77.5 6.25 81.25 6.25C85 6.25 87.5 8.75 87.5 12.5V25C87.5 28.75 85 31.25 81.25 31.25Z" fill="#0BEBAF"/>
<path d="M41.25 47.5C39.375 47.5 38.125 46.875 36.875 45.625L28.125 36.875C25.625 34.375 25.625 30.625 28.125 28.125C30.625 25.625 34.375 25.625 36.875 28.125L45.625 36.875C48.125 39.375 48.125 43.125 45.625 45.625C44.375 46.875 43.125 47.5 41.25 47.5Z" fill="#0BEBAF"/>
<path d="M131.875 187.5H80C60 187.5 43.75 171.25 43.75 150.625C43.75 130.625 59.375 114.375 79.375 113.75C86.875 90.625 107.5 75 131.875 75C162.5 75 187.5 100 187.5 131.25C187.5 162.5 162.5 187.5 131.875 187.5Z" fill="#0BEBAF"/>
<path d="M70.625 102.5C80 81.875 99.375 66.875 121.25 63.75C114.375 48.125 98.75 37.5 81.25 37.5C56.875 37.5 37.5 56.875 37.5 81.25C37.5 93.125 42.5 103.75 50 111.875C56.25 107.5 63.125 103.75 70.625 102.5Z" fill="#0BEBAF"/>
</svg>
