<svg width="200" height="200" viewBox="0 0 200 200" fill="none" xmlns="http://www.w3.org/2000/svg">
<path d="M105.974 94.572V73.3442C115.945 75.0927 115.947 81.2884 115.947 83.5438H127.896C127.896 71.0829 119.817 63.0435 105.974 61.2931V52.8071H94.0254V61.2931C80.1828 63.0435 72.1035 71.0825 72.1035 83.5438C72.1035 96.0052 80.1824 104.044 94.0254 105.794V127.022C84.0543 125.274 84.0523 119.078 84.0523 116.823H72.1035C72.1035 129.284 80.1824 137.323 94.0254 139.074V147.559H105.974V139.074C119.817 137.323 127.896 129.284 127.896 116.823C127.896 104.361 119.817 96.3228 105.974 94.572ZM94.0254 93.7431C84.0543 91.995 84.0523 85.7997 84.0523 83.5438C84.0523 81.2884 84.0543 75.0927 94.0254 73.3442V93.7431ZM105.974 127.022V106.623C115.945 108.372 115.947 114.567 115.947 116.823C115.947 119.078 115.945 125.274 105.974 127.022Z" fill="#0BEBAF"/>
<path d="M141.168 16.0737H58.8316C35.2555 16.0737 16.0738 35.255 16.0738 58.8319V79.0085L8.44844 71.3827L0 79.8323L22.0484 101.881L44.0969 79.8323L35.6477 71.3831L28.0227 79.0081V58.8319C28.0227 41.844 41.8434 28.0226 58.8316 28.0226H141.168C158.156 28.0226 171.977 41.8433 171.977 58.8319V89.4487H183.926V58.8319C183.926 35.255 164.745 16.0737 141.168 16.0737Z" fill="#0BEBAF"/>
<path d="M177.952 101.404L155.904 123.452L164.353 131.901L171.978 124.276V141.168C171.978 158.156 158.157 171.977 141.169 171.977H58.8316C41.8441 171.977 28.0227 158.157 28.0227 141.168V113.836H16.0738V141.168C16.0738 164.745 35.2551 183.926 58.8316 183.926H141.168C164.745 183.926 183.926 164.745 183.926 141.168V124.276L191.552 131.901L200 123.452L177.952 101.404Z" fill="#0BEBAF"/>
</svg>
