<svg width="200" height="200" viewBox="0 0 200 200" fill="none" xmlns="http://www.w3.org/2000/svg">
<g clip-path="url(#clip0_23_24)">
<path d="M57.6445 125.074C57.6141 124.762 57.5164 124.475 57.5164 124.164V121.497C57.5164 120.227 57.7238 118.976 58.1391 117.786C58.1391 117.786 64.786 108.887 67.9293 98.4317C64.4867 91.1685 61.3617 82.1294 61.3617 73.1692C61.3617 71.088 61.5145 69.0739 61.7281 67.0899C57.2422 62.3903 51.1813 59.729 44.4856 59.729C30.661 59.729 19.443 71.0083 19.443 88.5376C19.443 102.563 30.8567 117.786 30.8567 117.786C31.2594 118.976 31.4672 120.227 31.4672 121.497V124.164C31.4672 127.49 29.5262 130.518 26.4988 131.903L8.37736 139.307C4.16564 141.248 1.16876 145.117 0.332827 149.67L0.0214988 153.656C-0.137095 155.731 0.570717 157.776 1.98673 159.296C3.3965 160.828 5.38048 161.688 7.46173 161.688H37.082L38.2965 146.082L38.3758 145.661C39.859 137.476 45.2668 130.518 52.8227 127.039L57.6445 125.074Z" fill="#0BEBAF"/>
<path d="M199.667 149.67C198.837 145.117 195.84 141.247 191.629 139.307L173.495 131.903C170.468 130.518 168.539 127.49 168.539 124.164V121.497C168.539 120.227 168.741 118.976 169.156 117.786C169.156 117.786 180.563 102.563 180.563 88.5376C180.563 71.0083 169.351 59.729 155.502 59.729C148.819 59.729 142.758 62.3903 138.259 67.1021C138.479 69.0798 138.632 71.0876 138.632 73.1688C138.632 82.1228 135.513 91.1622 132.077 98.4251C135.214 108.881 141.873 117.786 141.873 117.786C142.275 118.976 142.489 120.227 142.489 121.497V124.164C142.489 124.475 142.385 124.762 142.355 125.073L146.847 126.904C154.72 130.506 160.128 137.463 161.63 145.648L161.703 146.075L162.912 161.688H192.544C194.625 161.688 196.609 160.828 198.013 159.296C199.429 157.776 200.137 155.731 199.978 153.656L199.667 149.67Z" fill="#0BEBAF"/>
<path d="M143.698 134.613L121.762 125.647C118.1 123.962 115.763 120.3 115.763 116.284V113.05C115.763 111.524 116.007 110.004 116.513 108.557C116.513 108.557 130.307 90.1491 130.307 73.169C130.307 51.953 116.739 38.312 99.9973 38.312C83.2613 38.312 69.6871 51.9534 69.6871 73.169C69.6871 90.1491 83.4934 108.557 83.4934 108.557C83.9879 110.004 84.2441 111.524 84.2441 113.05V116.284C84.2441 120.3 81.8883 123.962 78.232 125.647L56.2961 134.613C51.1996 136.951 47.568 141.638 46.5672 147.156L45.4379 161.688H99.9973H154.557L153.44 147.156C152.426 141.639 148.795 136.951 143.698 134.613Z" fill="#0BEBAF"/>
</g>
<defs>
<clipPath id="clip0_23_24">
<rect width="200" height="200" fill="white"/>
</clipPath>
</defs>
</svg>
