<svg width="201" height="200" viewBox="0 0 201 200" fill="none" xmlns="http://www.w3.org/2000/svg">
<g clip-path="url(#clip0_8_241)">
<path d="M182.141 103.224C183.476 106.969 187.024 109.675 191.224 109.675C196.559 109.675 200.901 105.333 200.901 99.9981C200.901 94.6628 196.559 90.3211 191.224 90.3211C187.024 90.3211 183.476 93.0274 182.141 96.7724H158.803C158.348 88.5728 156.21 80.8312 152.687 73.8799L166.612 66.1157C168.19 67.1415 170.009 67.7382 171.883 67.7382C173.525 67.7382 175.186 67.3189 176.705 66.4447C178.941 65.1545 180.544 63.0642 181.212 60.5708C181.879 58.0741 181.538 55.4646 180.244 53.2324C178.954 50.9906 176.864 49.3906 174.367 48.7197C171.873 48.0488 169.261 48.3971 167.029 49.6874C163.042 51.9938 161.326 56.7226 162.642 60.9482L149.474 68.2898C145.084 61.5869 139.356 55.8516 132.656 51.4551L151.278 19.2017C151.684 19.2533 152.087 19.3597 152.494 19.3597C155.839 19.3597 159.1 17.6243 160.893 14.5244C163.561 9.90207 161.971 3.9733 157.352 1.30245C155.116 0.0154124 152.503 -0.339411 150.01 0.334753C147.513 1.00569 145.423 2.60562 144.133 4.84746C142.842 7.08284 142.497 9.68918 143.165 12.1858C143.588 13.76 144.413 15.1405 145.504 16.2921L127.059 48.2359C120.098 44.7038 112.341 42.5555 104.125 42.1006V18.763C107.876 17.4275 110.583 13.8793 110.583 9.6795C110.583 4.34425 106.241 0.00250972 100.906 0.00250972C95.5704 0.00250972 91.2286 4.34425 91.2286 9.6795C91.2286 13.8793 93.935 17.4275 97.68 18.763V42.1006C89.4642 42.5555 81.7065 44.7005 74.7455 48.2359L56.3012 16.2921C59.1526 13.26 59.8591 8.62471 57.6753 4.84423C56.385 2.60885 54.2948 1.00569 51.8014 0.337979C49.2918 -0.332959 46.6919 0.0154123 44.463 1.30568C42.2211 2.59594 40.6212 4.68617 39.9503 7.18284C39.2826 9.67627 39.6245 12.2858 40.918 14.5212C42.705 17.6211 45.9661 19.3565 49.3111 19.3565C49.7176 19.3565 50.124 19.25 50.5304 19.1984L69.1522 51.4486C62.4654 55.8355 56.7463 61.5578 52.3594 68.2414L32.1667 56.5839C32.8828 52.6711 31.1603 48.5552 27.5282 46.4553C25.2961 45.1682 22.6897 44.8167 20.1866 45.4908C17.6835 46.1618 15.5997 47.7649 14.3062 50.0003C11.6386 54.6194 13.2256 60.5514 17.8448 63.2223H17.8512C19.3705 64.0964 21.0285 64.5126 22.6672 64.5126C24.9477 64.5126 27.1508 63.6513 28.912 62.1578L49.1402 73.838C45.6081 80.7989 43.4598 88.5566 43.005 96.7724H19.6705C18.3351 93.0274 14.7869 90.3211 10.5871 90.3211C5.25181 90.3211 0.910065 94.6628 0.910065 99.9981C0.910065 105.333 5.25181 109.675 10.5871 109.675C14.7869 109.675 18.3351 106.969 19.6705 103.224H43.0082C43.463 111.44 45.6081 119.197 49.1434 126.158L19.0609 143.525C18.219 142.98 17.3126 142.528 16.3158 142.261C13.8192 141.59 11.2128 141.932 8.97422 143.225C4.35185 145.896 2.7616 151.825 5.42922 156.447C7.22269 159.547 10.4806 161.282 13.8288 161.282C15.4675 161.282 17.1255 160.866 18.6448 159.992H18.6512C22.651 157.679 24.3639 152.922 23.022 148.689L52.3529 131.755C56.7495 138.454 62.4848 144.183 69.1877 148.573L60.2461 164.611C56.4818 164.118 52.6045 165.866 50.5853 169.353C47.9177 173.975 49.5079 179.904 54.1271 182.575C55.6205 183.436 57.2753 183.875 58.9527 183.875C59.7913 183.875 60.6364 183.765 61.4687 183.54C63.9653 182.869 66.0556 181.269 67.3458 179.027C68.6361 176.791 68.9812 174.185 68.3135 171.688C67.891 170.114 67.0652 168.734 65.9749 167.582L74.781 151.786C81.7323 155.309 89.4739 157.447 97.6735 157.902V181.24C93.9285 182.575 91.2222 186.123 91.2222 190.323C91.2222 195.658 95.5639 200 100.899 200C106.234 200 110.576 195.658 110.576 190.323C110.576 186.123 107.87 182.575 104.125 181.24V157.902C112.341 157.447 120.098 155.302 127.059 151.767L138.723 171.969C136.149 174.998 135.578 179.424 137.675 183.065C139.468 186.162 142.726 187.897 146.075 187.897C147.716 187.897 149.374 187.481 150.894 186.604C153.132 185.314 154.736 183.227 155.403 180.73C156.074 178.233 155.732 175.627 154.439 173.388C152.339 169.756 148.223 168.034 144.31 168.747L132.653 148.554C139.339 144.167 145.059 138.445 149.445 131.761L178.776 148.696C177.435 152.928 179.147 157.686 183.15 159.999C184.679 160.866 186.341 161.286 187.982 161.286C191.327 161.286 194.589 159.55 196.382 156.45C197.672 154.212 198.017 151.602 197.35 149.109C196.679 146.612 195.079 144.522 192.837 143.232C190.602 141.941 187.995 141.593 185.499 142.264C184.502 142.532 183.599 142.983 182.757 143.528L152.674 126.158C156.203 119.197 158.348 111.44 158.803 103.224H182.141ZM191.224 96.7724C193.005 96.7724 194.45 98.2175 194.45 99.9981C194.45 101.779 193.005 103.224 191.224 103.224C189.444 103.224 187.999 101.779 187.999 99.9981C187.999 98.2175 189.444 96.7724 191.224 96.7724ZM170.257 55.271C170.754 54.9807 171.306 54.8356 171.864 54.8356C172.144 54.8356 172.425 54.8743 172.702 54.9452C173.538 55.1678 174.231 55.7033 174.66 56.4548C175.093 57.1968 175.209 58.0677 174.986 58.8999C174.764 59.7321 174.231 60.4289 173.483 60.8546C171.941 61.7417 169.961 61.2159 169.077 59.6773C168.183 58.1354 168.716 56.1581 170.257 55.271ZM149.726 8.06989V8.06344C150.158 7.32154 150.852 6.78608 151.684 6.56028C151.961 6.48932 152.242 6.45061 152.523 6.45061C153.081 6.45061 153.632 6.59899 154.129 6.88608C155.671 7.77313 156.203 9.75369 155.31 11.2891C154.423 12.8342 152.439 13.3568 150.903 12.4697C150.158 12.0407 149.626 11.3439 149.4 10.5149C149.174 9.68595 149.294 8.8118 149.726 8.06989ZM50.9078 12.4729C49.3628 13.3664 47.3854 12.8342 46.5016 11.2923C46.0694 10.5472 45.9565 9.6795 46.1758 8.84728C46.3984 8.01183 46.9338 7.31832 47.6854 6.8893C48.1789 6.59899 48.7305 6.45384 49.2886 6.45384C49.5692 6.45384 49.8531 6.49254 50.1305 6.56351C50.9627 6.78608 51.6594 7.31832 52.0852 8.06667C52.9755 9.60854 52.4433 11.5859 50.9078 12.4729ZM25.4799 56.4516C24.5961 57.9903 22.6188 58.5289 21.0737 57.6322C19.5318 56.7419 19.0028 54.7646 19.8963 53.2227C20.3286 52.4808 21.0221 51.9454 21.8511 51.7228C22.693 51.5002 23.551 51.6164 24.2994 52.0454C25.8412 52.9324 26.3702 54.9098 25.4799 56.4516ZM10.5871 103.224C8.80649 103.224 7.36139 101.779 7.36139 99.9981C7.36139 98.2175 8.80649 96.7724 10.5871 96.7724C12.3676 96.7724 13.8127 98.2175 13.8127 99.9981C13.8127 101.779 12.3676 103.224 10.5871 103.224ZM15.4256 154.402C13.8805 155.292 11.9031 154.757 11.0193 153.222C10.129 151.68 10.6612 149.702 12.1999 148.815C12.6966 148.528 13.2482 148.38 13.8063 148.38C14.0869 148.38 14.3708 148.419 14.6482 148.493C15.4804 148.712 16.1739 149.248 16.6029 149.996C17.4964 151.538 16.9674 153.512 15.4256 154.402ZM61.7622 175.798V175.804C61.33 176.546 60.6364 177.082 59.8042 177.308C58.9785 177.524 58.1075 177.414 57.3592 176.982C55.8173 176.095 55.2851 174.114 56.1786 172.579C56.7753 171.543 57.8591 170.966 58.9752 170.966C59.5236 170.966 60.0784 171.105 60.5848 171.398C61.33 171.827 61.8622 172.524 62.088 173.353C62.3138 174.182 62.1944 175.056 61.7622 175.798ZM144.449 175.424C144.955 175.13 145.51 174.992 146.058 174.992C147.175 174.992 148.265 175.572 148.858 176.604C149.291 177.349 149.403 178.22 149.181 179.053C148.962 179.885 148.426 180.578 147.678 181.007C146.136 181.894 144.159 181.365 143.271 179.833C142.384 178.288 142.913 176.311 144.449 175.424ZM185.208 149.996C185.637 149.251 186.334 148.718 187.163 148.493C187.441 148.422 187.724 148.383 188.005 148.383C188.563 148.383 189.115 148.528 189.608 148.818H189.615C190.357 149.251 190.892 149.944 191.118 150.776C191.337 151.609 191.224 152.476 190.792 153.222C189.908 154.76 187.924 155.296 186.389 154.402C184.847 153.515 184.315 151.535 185.208 149.996ZM100.906 6.45384C102.686 6.45384 104.131 7.89893 104.131 9.6795C104.131 11.4601 102.686 12.9052 100.906 12.9052C99.1251 12.9052 97.68 11.4601 97.68 9.6795C97.68 7.89893 99.1251 6.45384 100.906 6.45384ZM104.131 190.317C104.131 192.097 102.686 193.542 100.906 193.542C99.1251 193.542 97.68 192.097 97.68 190.317C97.68 188.536 99.1251 187.091 100.906 187.091C102.686 187.091 104.131 188.536 104.131 190.317ZM100.906 151.609C72.4488 151.609 49.295 128.455 49.295 99.9981C49.295 71.5413 72.4488 48.3875 100.906 48.3875C129.362 48.3875 152.516 71.5413 152.516 99.9981C152.516 128.455 129.362 151.609 100.906 151.609Z" fill="#0BEBAF"/>
<path d="M126.711 67.7412C119.595 67.7412 113.808 73.5281 113.808 80.6439C113.808 87.7597 119.595 93.5465 126.711 93.5465C133.827 93.5465 139.614 87.7597 139.614 80.6439C139.614 73.5281 133.827 67.7412 126.711 67.7412ZM126.711 87.0952C123.153 87.0952 120.26 84.2018 120.26 80.6439C120.26 77.086 123.153 74.1925 126.711 74.1925C130.269 74.1925 133.162 77.086 133.162 80.6439C133.162 84.2018 130.269 87.0952 126.711 87.0952Z" fill="#0BEBAF"/>
<path d="M71.8747 96.7725C64.7589 96.7725 58.972 102.559 58.972 109.675C58.972 116.791 64.7589 122.578 71.8747 122.578C78.9905 122.578 84.7773 116.791 84.7773 109.675C84.7773 102.559 78.9905 96.7725 71.8747 96.7725ZM71.8747 116.126C68.3168 116.126 65.4233 113.233 65.4233 109.675C65.4233 106.117 68.3168 103.224 71.8747 103.224C75.4326 103.224 78.326 106.117 78.326 109.675C78.326 113.233 75.4326 116.126 71.8747 116.126Z" fill="#0BEBAF"/>
<path d="M84.7773 61.29C79.4421 61.29 75.1003 65.6318 75.1003 70.967C75.1003 76.3023 79.4421 80.644 84.7773 80.644C90.1126 80.644 94.4543 76.3023 94.4543 70.967C94.4543 65.6318 90.1126 61.29 84.7773 61.29ZM84.7773 74.1927C82.9968 74.1927 81.5517 72.7476 81.5517 70.967C81.5517 69.1865 82.9968 67.7414 84.7773 67.7414C86.5579 67.7414 88.003 69.1865 88.003 70.967C88.003 72.7476 86.5579 74.1927 84.7773 74.1927Z" fill="#0BEBAF"/>
<path d="M104.131 125.803C98.7961 125.803 94.4543 130.145 94.4543 135.48C94.4543 140.815 98.7961 145.157 104.131 145.157C109.467 145.157 113.808 140.815 113.808 135.48C113.808 130.145 109.467 125.803 104.131 125.803ZM104.131 138.706C102.351 138.706 100.906 137.261 100.906 135.48C100.906 133.7 102.351 132.255 104.131 132.255C105.912 132.255 107.357 133.7 107.357 135.48C107.357 137.261 105.912 138.706 104.131 138.706Z" fill="#0BEBAF"/>
<path d="M126.711 109.675C126.711 115.01 131.053 119.352 136.388 119.352C141.723 119.352 146.065 115.01 146.065 109.675C146.065 104.34 141.723 99.998 136.388 99.998C131.053 99.998 126.711 104.34 126.711 109.675ZM139.614 109.675C139.614 111.456 138.168 112.901 136.388 112.901C134.607 112.901 133.162 111.456 133.162 109.675C133.162 107.894 134.607 106.449 136.388 106.449C138.168 106.449 139.614 107.894 139.614 109.675Z" fill="#0BEBAF"/>
</g>
<defs>
<clipPath id="clip0_8_241">
<rect width="200" height="200" fill="white" transform="translate(0.90564)"/>
</clipPath>
</defs>
</svg>
