<svg width="65" height="64" viewBox="0 0 65 64" fill="none" xmlns="http://www.w3.org/2000/svg">
<g clip-path="url(#clip0_14_285)">
<path d="M36.9601 9.2854H4.55292C3.00657 9.2854 1.74854 10.5434 1.74854 12.0898V61.1014C1.74854 62.6478 3.00657 63.9058 4.55292 63.9058H36.9601C38.5064 63.9058 39.7645 62.6478 39.7645 61.1014V12.09C39.7645 10.5434 38.5064 9.2854 36.9601 9.2854ZM33.2099 59.0996H8.30286C7.33768 59.0996 6.55502 58.3169 6.55502 57.3517C6.55502 56.3865 7.33768 55.6039 8.30286 55.6039H33.2099C34.1751 55.6039 34.9578 56.3865 34.9578 57.3517C34.9578 58.3169 34.1751 59.0996 33.2099 59.0996ZM33.2099 50.7972H8.30286C7.33768 50.7972 6.55502 50.0145 6.55502 49.0494C6.55502 48.0842 7.33768 47.3015 8.30286 47.3015H33.2099C34.1751 47.3015 34.9578 48.0842 34.9578 49.0494C34.9578 50.0145 34.1751 50.7972 33.2099 50.7972ZM33.2099 42.4948H8.30286C7.33768 42.4948 6.55502 41.7122 6.55502 40.747C6.55502 39.7818 7.33768 38.9992 8.30286 38.9992H33.2099C34.1751 38.9992 34.9578 39.7818 34.9578 40.747C34.9578 41.7122 34.1751 42.4948 33.2099 42.4948ZM33.2099 34.1925H8.30286C7.33768 34.1925 6.55502 33.4098 6.55502 32.4446C6.55502 31.4795 7.33768 30.6968 8.30286 30.6968H33.2099C34.1751 30.6968 34.9578 31.4795 34.9578 32.4446C34.9578 33.4098 34.1751 34.1925 33.2099 34.1925ZM33.2099 25.8901H8.30286C7.33768 25.8901 6.55502 25.1075 6.55502 24.1423C6.55502 23.1771 7.33768 22.3945 8.30286 22.3945H33.2099C34.1751 22.3945 34.9578 23.1771 34.9578 24.1423C34.9578 25.1075 34.1751 25.8901 33.2099 25.8901ZM33.2099 17.5878H8.30286C7.33768 17.5878 6.55502 16.8051 6.55502 15.8399C6.55502 14.8748 7.33768 14.0921 8.30286 14.0921H33.2099C34.1751 14.0921 34.9578 14.8748 34.9578 15.8399C34.9578 16.8051 34.1751 17.5878 33.2099 17.5878Z" fill="#1C274C"/>
<path d="M46.5375 0H12.8553C11.3087 0 10.0509 1.25802 10.0509 2.80437V5.78976H36.9601C40.434 5.78976 43.2603 8.6159 43.2603 12.09V55.6039H46.5375C48.0838 55.6039 49.3419 54.3459 49.3419 52.7995V2.80437C49.3419 1.25802 48.0838 0 46.5375 0Z" fill="#1C274C"/>
<path d="M63.2515 5.02606C63.2512 2.25488 61.242 0 58.7725 0C56.3028 0 54.2936 2.25488 54.2936 5.02606V7.95327H63.2515V5.02606Z" fill="#1C274C"/>
<path d="M54.2936 11.449V57.6793C54.2936 57.9379 54.3673 58.1907 54.5054 58.4057L57.7207 63.4156C57.955 63.7807 58.3497 64 58.7725 64C59.1951 64 59.5901 63.7807 59.8243 63.4156L63.0396 58.4057C63.1778 58.1907 63.2515 57.9379 63.2515 57.6793V11.449H54.2936Z" fill="#1C274C"/>
</g>
<defs>
<clipPath id="clip0_14_285">
<rect width="64" height="64" fill="white" transform="translate(0.5)"/>
</clipPath>
</defs>
</svg>
