<svg width="32" height="32" viewBox="0 0 32 32" fill="none" xmlns="http://www.w3.org/2000/svg">
<path d="M22.0515 8.52344L16.0644 13.1959L9.94043 8.52344V8.5247L9.94783 8.53102V15.0737L15.9954 19.8471L22.0515 15.258V8.52344Z" fill="#EA4335"/>
<path d="M23.6231 7.38639L22.0508 8.52292V15.2575L26.9983 11.459V9.17074C26.9983 9.17074 26.3978 5.90258 23.6231 7.38639Z" fill="#FBBC05"/>
<path d="M22.0508 15.2575V23.9924H25.8428C25.8428 23.9924 26.9219 23.8813 26.9995 22.6513V11.459L22.0508 15.2575Z" fill="#34A853"/>
<path d="M9.94811 24.0006V15.0737L9.94043 15.0674L9.94811 24.0006Z" fill="#C5221F"/>
<path d="M9.94014 8.52356L8.37646 7.39333C5.60179 5.90953 5 9.17643 5 9.17643V11.4646L9.94014 15.0662V8.52356Z" fill="#C5221F"/>
<path d="M9.94043 8.52441V15.0671L9.94811 15.0734V8.53073L9.94043 8.52441Z" fill="#C5221F"/>
<path d="M5 11.4668V22.6591C5.07646 23.8904 6.15673 24.0003 6.15673 24.0003H9.94877L9.94014 15.0671L5 11.4668Z" fill="#4285F4"/>
</svg>
