<svg width="65" height="64" viewBox="0 0 65 64" fill="none" xmlns="http://www.w3.org/2000/svg">
<path d="M32.5001 5.33398V58.6673" stroke="#1C274C" stroke-width="4" stroke-linecap="round" stroke-linejoin="round"/>
<path d="M59.1668 32.0005H5.83344" stroke="#1C274C" stroke-width="4" stroke-linecap="round" stroke-linejoin="round"/>
<path d="M32.7993 32.0007C37.9079 32.0007 42.3845 27.6291 43.7281 21.5533L44.0672 20.02C44.406 17.6047 45.5583 15.3772 47.3339 13.7053C49.1095 12.0333 51.4022 11.0168 53.8334 10.8237" stroke="#1C274C" stroke-width="4" stroke-linecap="round" stroke-linejoin="round"/>
<path d="M32.2009 32.1568L32.5001 32.0005C29.7313 32.2396 27.1219 33.3979 25.0873 35.291C23.0527 37.1842 21.7097 39.7035 21.2721 42.4479L20.933 43.9813C20.5942 46.3965 19.4419 48.624 17.6663 50.296C15.8907 51.9679 13.598 52.9844 11.1668 53.1775" stroke="#1C274C" stroke-width="4" stroke-linecap="round" stroke-linejoin="round"/>
</svg>
