<svg width="65" height="64" viewBox="0 0 65 64" fill="none" xmlns="http://www.w3.org/2000/svg">
<path d="M5.83334 5.33228V53.3323C5.83334 54.7468 6.39525 56.1033 7.39544 57.1035C8.39563 58.1037 9.75219 58.6656 11.1667 58.6656H59.1667" stroke="#1C274C" stroke-width="4" stroke-linecap="round" stroke-linejoin="round"/>
<path d="M24.5 35.999C24.5 33.7899 22.7091 31.999 20.5 31.999C18.2909 31.999 16.5 33.7899 16.5 35.999V43.999C16.5 46.2082 18.2909 47.999 20.5 47.999C22.7091 47.999 24.5 46.2082 24.5 43.999V35.999Z" stroke="#1C274C" stroke-width="4" stroke-linecap="round" stroke-linejoin="round"/>
<path d="M40.5 22.6655C40.5 20.4564 38.7091 18.6655 36.5 18.6655C34.2909 18.6655 32.5 20.4564 32.5 22.6655V30.6655C32.5 32.8747 34.2909 34.6655 36.5 34.6655C38.7091 34.6655 40.5 32.8747 40.5 30.6655V22.6655Z" stroke="#1C274C" stroke-width="4" stroke-linecap="round" stroke-linejoin="round"/>
<path d="M56.5 11.999C56.5 9.78988 54.7091 7.99902 52.5 7.99902C50.2909 7.99902 48.5 9.78988 48.5 11.999V19.999C48.5 22.2082 50.2909 23.999 52.5 23.999C54.7091 23.999 56.5 22.2082 56.5 19.999V11.999Z" stroke="#1C274C" stroke-width="4" stroke-linecap="round" stroke-linejoin="round"/>
</svg>
