<svg width="65" height="64" viewBox="0 0 65 64" fill="none" xmlns="http://www.w3.org/2000/svg">
<path d="M56.5 37.3335H53.8333V10.6668H56.5C57.2073 10.6668 57.8855 10.3859 58.3856 9.88578C58.8857 9.38568 59.1667 8.70741 59.1667 8.00016C59.1667 7.29292 58.8857 6.61464 58.3856 6.11454C57.8855 5.61445 57.2073 5.3335 56.5 5.3335H8.50001C7.79277 5.3335 7.11449 5.61445 6.61439 6.11454C6.11429 6.61464 5.83334 7.29292 5.83334 8.00016C5.83334 8.70741 6.11429 9.38568 6.61439 9.88578C7.11449 10.3859 7.79277 10.6668 8.50001 10.6668H11.1667V37.3335H8.50001C7.79277 37.3335 7.11449 37.6144 6.61439 38.1145C6.11429 38.6146 5.83334 39.2929 5.83334 40.0002C5.83334 40.7074 6.11429 41.3857 6.61439 41.8858C7.11449 42.3859 7.79277 42.6668 8.50001 42.6668H29.8333V45.7335L17.7 53.7335C17.2022 54.0416 16.8197 54.505 16.6114 55.0521C16.4031 55.5992 16.3806 56.1997 16.5475 56.7608C16.7143 57.322 17.0611 57.8126 17.5345 58.1571C18.0079 58.5016 18.5814 58.6807 19.1667 58.6668C19.6909 58.6728 20.2039 58.5143 20.6333 58.2135L29.8333 52.1335V56.0002C29.8333 56.7074 30.1143 57.3857 30.6144 57.8858C31.1145 58.3859 31.7928 58.6668 32.5 58.6668C33.2073 58.6668 33.8855 58.3859 34.3856 57.8858C34.8857 57.3857 35.1667 56.7074 35.1667 56.0002V52.1335L44.3667 58.2135C44.7961 58.5143 45.3091 58.6728 45.8333 58.6668C46.4031 58.6624 46.9564 58.4757 47.4123 58.1339C47.8682 57.7922 48.2026 57.3134 48.3666 56.7678C48.5306 56.2221 48.5155 55.6383 48.3235 55.1019C48.1316 54.5654 47.7729 54.1046 47.3 53.7868L35.1667 45.7868V42.6668H56.5C57.2073 42.6668 57.8855 42.3859 58.3856 41.8858C58.8857 41.3857 59.1667 40.7074 59.1667 40.0002C59.1667 39.2929 58.8857 38.6146 58.3856 38.1145C57.8855 37.6144 57.2073 37.3335 56.5 37.3335ZM48.5 37.3335H16.5V10.6668H48.5V37.3335ZM26.1267 32.6935C26.8374 33.1134 27.6478 33.3349 28.4733 33.3349C29.2989 33.3349 30.1093 33.1134 30.82 32.6935L38.82 28.0535C39.5039 27.6337 40.0688 27.0456 40.4607 26.3453C40.8525 25.645 41.0583 24.856 41.0583 24.0535C41.0583 23.251 40.8525 22.462 40.4607 21.7617C40.0688 21.0614 39.5039 20.4733 38.82 20.0535L30.82 15.4135C30.1093 14.9936 29.2989 14.7721 28.4733 14.7721C27.6478 14.7721 26.8374 14.9936 26.1267 15.4135C25.4105 15.8172 24.8168 16.4071 24.4084 17.1206C24 17.8341 23.7921 18.6448 23.8067 19.4668V28.7468C23.8111 29.5508 24.0281 30.3393 24.4355 31.0324C24.8429 31.7255 25.4264 32.2986 26.1267 32.6935ZM29.14 20.4802L35.1667 24.0002L29.0867 27.5202L29.14 20.4802Z" fill="#1C274C"/>
</svg>
